<svg width="75" height="65" viewBox="0 0 75 65" fill="none" xmlns="http://www.w3.org/2000/svg">
<path d="M72.3214 44.7525V39.4643C72.3214 37.0016 71.1926 34.6397 69.1833 32.8983C67.174 31.1569 64.4487 30.1786 61.6071 30.1786C58.7655 30.1786 56.0403 31.1569 54.031 32.8983C52.0217 34.6397 50.8929 37.0016 50.8929 39.4643V44.7525C50.0813 45.1569 49.4067 45.7391 48.9366 46.4407C48.4665 47.1423 48.2174 47.9387 48.2143 48.75V60.3571C48.2164 61.5879 48.7815 62.7678 49.7857 63.6381C50.7899 64.5084 52.1513 64.9982 53.5714 65H69.6429C71.063 64.9982 72.4244 64.5084 73.4286 63.6381C74.4328 62.7678 74.9979 61.5879 75 60.3571V48.75C74.9969 47.9387 74.7478 47.1423 74.2777 46.4407C73.8076 45.7391 73.133 45.1569 72.3214 44.7525ZM61.6071 34.8214C63.0273 34.8233 64.3887 35.313 65.3929 36.1833C66.3971 37.0536 66.9622 38.2335 66.9643 39.4643V44.1071H56.25V39.4643C56.2521 38.2335 56.8172 37.0536 57.8214 36.1833C58.8256 35.313 60.187 34.8233 61.6071 34.8214ZM53.5714 60.3571V48.75H69.6429V60.3571H53.5714ZM0 0H5.35714V9.28571H0V0ZM32.1429 0H37.5V9.28571H32.1429V0ZM42.8571 0H48.2143V9.28571H42.8571V0ZM0 13.9286H5.35714V32.5H0V13.9286ZM0 37.1429H5.35714V55.7143H0V37.1429ZM32.1429 37.1429H37.5V55.7143H32.1429V37.1429ZM10.7143 13.9286H16.0714V32.5H10.7143V13.9286ZM42.8571 13.9286H48.2143V27.8571H42.8571V13.9286ZM21.4286 55.7143H16.0714C14.6511 55.7131 13.2893 55.2235 12.2849 54.3531C11.2806 53.4826 10.7157 52.3024 10.7143 51.0714V41.7857C10.7157 40.5547 11.2806 39.3745 12.2849 38.5041C13.2893 37.6336 14.6511 37.1441 16.0714 37.1429H21.4286C22.8489 37.1441 24.2107 37.6336 25.2151 38.5041C26.2194 39.3745 26.7843 40.5547 26.7857 41.7857V51.0714C26.7843 52.3024 26.2194 53.4826 25.2151 54.3531C24.2107 55.2235 22.8489 55.7131 21.4286 55.7143ZM16.0714 41.7857V51.0714H21.4286V41.7857H16.0714ZM32.1429 32.5H26.7857C25.3653 32.4988 24.0036 32.0092 22.9992 31.1388C21.9949 30.2683 21.43 29.0881 21.4286 27.8571V18.5714C21.43 17.3404 21.9949 16.1602 22.9992 15.2898C24.0036 14.4194 25.3653 13.9298 26.7857 13.9286H32.1429C33.5632 13.9298 34.925 14.4194 35.9294 15.2898C36.9337 16.1602 37.4986 17.3404 37.5 18.5714V27.8571C37.4986 29.0881 36.9337 30.2683 35.9294 31.1388C34.925 32.0092 33.5632 32.4988 32.1429 32.5ZM26.7857 18.5714V27.8571H32.1429V18.5714H26.7857ZM21.4286 9.28571H16.0714C14.6511 9.28448 13.2893 8.79493 12.2849 7.92449C11.2806 7.05406 10.7157 5.87384 10.7143 4.64286V0H16.0714V4.64286H21.4286V0H26.7857V4.64286C26.7843 5.87384 26.2194 7.05406 25.2151 7.92449C24.2107 8.79493 22.8489 9.28448 21.4286 9.28571Z" fill="black"/>
</svg>
