<svg width="53" height="40" viewBox="0 0 53 40" fill="none" xmlns="http://www.w3.org/2000/svg">
<path d="M11.4376 5.49456C11.1763 5.49202 10.9226 5.42747 10.7116 5.30986C10.5005 5.19225 10.3428 5.02743 10.2601 4.83828C10.1775 4.64914 10.1741 4.44505 10.2504 4.25437C10.3267 4.06368 10.479 3.89586 10.686 3.77421C15.1944 1.34072 20.6237 0.101496 26.143 0.246245C30.4893 0.246245 36.7309 0.807229 41.6653 3.51242C41.9352 3.66013 42.1175 3.88325 42.1726 4.13313C42.2277 4.38301 42.1511 4.63937 41.9594 4.84631C41.7604 5.05107 41.464 5.188 41.1339 5.22764C40.8039 5.26728 40.4666 5.20645 40.1948 5.05824C36.0046 3.02649 31.1044 2.01357 26.143 2.15359C21.1897 2.0252 16.3158 3.12767 12.2546 5.2951C12.0234 5.43553 11.7328 5.50649 11.4376 5.49456Z" fill="black"/>
<path d="M46.1259 14.2844C45.9239 14.283 45.7252 14.245 45.5462 14.1735C45.3672 14.1019 45.2131 13.999 45.0965 13.8731C42.2698 10.8313 37.221 6.77973 26.143 6.77973C22.4596 6.70896 18.8084 7.31807 15.4999 8.55525C12.1914 9.79242 9.32358 11.621 7.14037 13.8855C6.94431 14.0894 6.65069 14.2261 6.32333 14.2658C5.99597 14.3055 5.6613 14.245 5.39206 14.0975C5.25082 14.0225 5.13155 13.9259 5.04182 13.8139C4.95208 13.7018 4.89385 13.5768 4.8708 13.4467C4.84776 13.3166 4.86041 13.1842 4.90795 13.058C4.95549 12.9319 5.03689 12.8146 5.14697 12.7137C7.56739 10.219 10.738 8.20451 14.3919 6.83991C18.0458 5.47531 22.0759 4.80052 26.143 4.87238C35.3093 4.87238 42.1718 7.46537 47.1226 12.776C47.3126 12.9845 47.3866 13.2419 47.3284 13.4919C47.2702 13.7419 47.0846 13.9641 46.8121 14.1099C46.6099 14.2168 46.3718 14.2774 46.1259 14.2844Z" fill="black"/>
<path d="M20.0645 38.6458C19.811 38.6447 19.5637 38.5861 19.3542 38.4773C19.1446 38.3685 18.9823 38.2144 18.8881 38.0349C18.8228 37.9175 18.7896 37.7911 18.7907 37.6635C18.7918 37.5359 18.8271 37.4098 18.8945 37.2931C18.9618 37.1763 19.0598 37.0713 19.1823 36.9844C19.3049 36.8976 19.4494 36.8309 19.607 36.7883C26.7473 34.6939 31.0445 30.4055 31.0445 25.3068C31.0933 24.8061 31 24.3033 30.7709 23.8327C30.5419 23.3621 30.1824 22.9347 29.7171 22.5797C29.2518 22.2247 28.6917 21.9504 28.0748 21.7756C27.4579 21.6009 26.7989 21.5297 26.1427 21.5669C23.1036 21.5669 21.6331 22.8135 21.2409 25.7431C21.0586 27.1133 20.1873 28.3763 18.8101 29.2666C17.4329 30.157 15.657 30.6054 13.8556 30.5177C12.8868 30.5285 11.9257 30.3851 11.0336 30.0969C10.1414 29.8086 9.33769 29.3817 8.67366 28.8434C8.00963 28.3051 7.49982 27.6672 7.17672 26.9703C6.85362 26.2734 6.72431 25.5328 6.79702 24.7957C6.88731 20.9414 8.97212 17.2708 12.5965 14.5849C16.2208 11.8991 21.0905 10.416 26.1427 10.4594C31.3231 10.4594 36.293 12.0235 39.9668 14.8101C43.6406 17.5967 45.7197 21.3794 45.7499 25.3317C45.6345 28.1147 44.8653 30.8593 43.4787 33.4348C43.3456 33.6645 43.1012 33.846 42.7966 33.9413C42.492 34.0366 42.1509 34.0382 41.8448 33.946C41.6929 33.8982 41.555 33.828 41.4389 33.7393C41.3229 33.6506 41.2311 33.5453 41.1688 33.4293C41.1064 33.3134 41.0749 33.1892 41.076 33.0639C41.077 32.9386 41.1106 32.8147 41.1749 32.6993C42.4296 30.3558 43.132 27.8616 43.25 25.3317C43.2283 21.8832 41.4154 18.5818 38.2086 16.1515C35.0017 13.7212 30.6627 12.3601 26.1427 12.3668C23.9556 12.3337 21.7814 12.6302 19.7446 13.2391C17.7079 13.8481 15.8485 14.7576 14.2731 15.9156C12.6977 17.0736 11.4372 18.4573 10.5636 19.9875C9.69013 21.5177 9.22081 23.1643 9.18255 24.8331C9.11558 25.3181 9.18402 25.8084 9.38337 26.2718C9.58272 26.7352 9.90845 27.1611 10.3391 27.5215C10.7698 27.8819 11.2956 28.1686 11.882 28.3627C12.4684 28.5568 13.1021 28.654 13.7412 28.6478C14.3296 28.6924 14.9238 28.6477 15.4894 28.5161C16.0551 28.3846 16.5809 28.1689 17.0367 27.8814C17.4924 27.594 17.869 27.2405 18.1447 26.8414C18.4204 26.4423 18.5898 26.0055 18.643 25.5561C19.2312 21.6791 21.7311 19.7094 26.0937 19.7094C27.0824 19.6713 28.0705 19.7926 28.9935 20.0655C29.9166 20.3384 30.7538 20.7567 31.4507 21.2931C32.1476 21.8295 32.6884 22.4719 33.0379 23.1786C33.3874 23.8852 33.5378 24.6401 33.4791 25.3941C33.4791 31.3031 28.5773 36.2647 20.4076 38.6458C20.2936 38.6558 20.1785 38.6558 20.0645 38.6458Z" fill="black"/>
<path d="M32.303 37.748C31.99 37.7442 31.689 37.6559 31.4533 37.4987C31.3367 37.4106 31.2442 37.3058 31.181 37.1902C31.1179 37.0747 31.0853 36.9507 31.0853 36.8255C31.0853 36.7003 31.1179 36.5764 31.181 36.4608C31.2442 36.3453 31.3367 36.2404 31.4533 36.1524C35.1293 33.2451 37.2001 29.3711 37.2374 25.3316C37.2374 23.3869 36.4531 17.0415 26.2901 17.0415C24.8092 17.0018 23.3328 17.1874 21.947 17.5877C20.5611 17.9879 19.2937 18.5947 18.2185 19.3727C17.2565 20.0989 16.496 20.9654 15.9823 21.9207C15.4686 22.8759 15.2122 23.9002 15.2284 24.9327C15.2241 25.1851 15.0897 25.4261 14.8542 25.6034C14.6187 25.7807 14.3011 25.8801 13.9703 25.8801C13.8058 25.8818 13.6426 25.8585 13.49 25.8116C13.3375 25.7647 13.1987 25.6952 13.0816 25.6071C12.9646 25.5189 12.8716 25.4139 12.8082 25.2981C12.7448 25.1824 12.7121 25.0581 12.7122 24.9327C12.6867 23.6555 12.9943 22.3873 13.617 21.2016C14.2397 20.016 15.1651 18.9366 16.3395 18.0263C17.6412 17.0731 19.1782 16.3265 20.8611 15.8301C22.544 15.3336 24.3394 15.097 26.143 15.1342C36.0773 15.1342 39.6066 20.6193 39.6066 25.3316C39.5853 29.8281 37.3045 34.1471 33.2343 37.399C33.122 37.5056 32.9804 37.5921 32.8194 37.6524C32.6585 37.7127 32.4822 37.7454 32.303 37.748Z" fill="black"/>
<path d="M14.1501 33.5808C13.2983 33.5792 12.4474 33.5418 11.6011 33.4686C11.438 33.4547 11.2802 33.4164 11.1365 33.3559C10.9928 33.2954 10.8661 33.214 10.7637 33.1161C10.6613 33.0183 10.5852 32.9061 10.5396 32.7858C10.494 32.6655 10.48 32.5396 10.4982 32.4152C10.5165 32.2907 10.5666 32.1703 10.6459 32.0607C10.7252 31.951 10.8319 31.8544 10.9601 31.7763C11.0883 31.6981 11.2355 31.64 11.3931 31.6053C11.5507 31.5705 11.7158 31.5598 11.8789 31.5737C15.9474 31.9227 19.1499 31.3742 21.421 29.9281C22.4679 29.2138 23.3145 28.3453 23.9098 27.3748C24.5051 26.4042 24.8368 25.3518 24.885 24.2809C24.8931 24.1547 24.9346 24.031 25.0071 23.9174C25.0796 23.8037 25.1816 23.7025 25.3068 23.6197C25.432 23.537 25.5779 23.4745 25.7357 23.436C25.8935 23.3975 26.0599 23.3838 26.2248 23.3958C26.5542 23.415 26.8609 23.531 27.0804 23.7193C27.2999 23.9077 27.4149 24.1537 27.4012 24.4056C27.3324 25.7389 26.9087 27.0476 26.1558 28.2521C25.403 29.4565 24.3369 30.5315 23.0223 31.4116C20.5002 32.9212 17.3523 33.6908 14.1501 33.5808Z" fill="black"/>
</svg>
