<svg width="65" height="55" viewBox="0 0 65 55" fill="none" xmlns="http://www.w3.org/2000/svg">
<path d="M6.5 0C4.77609 0 3.12279 0.724328 1.90381 2.01364C0.684819 3.30295 0 5.05164 0 6.875V24.0625H19.9225C21.4175 18.0125 26.585 13.75 32.5 13.75C35.379 13.7581 38.1744 14.7744 40.4497 16.64C42.7251 18.5056 44.3524 21.1156 45.0775 24.0625H65V6.875C65 5.05164 64.3152 3.30295 63.0962 2.01364C61.8772 0.724328 60.2239 0 58.5 0H6.5ZM32.5 20.625C30.7761 20.625 29.1228 21.3493 27.9038 22.6386C26.6848 23.928 26 25.6766 26 27.5C26 29.3234 26.6848 31.072 27.9038 32.3614C29.1228 33.6507 30.7761 34.375 32.5 34.375C34.2239 34.375 35.8772 33.6507 37.0962 32.3614C38.3152 31.072 39 29.3234 39 27.5C39 25.6766 38.3152 23.928 37.0962 22.6386C35.8772 21.3493 34.2239 20.625 32.5 20.625ZM0 30.9375V48.125C0 49.9484 0.684819 51.697 1.90381 52.9864C3.12279 54.2757 4.77609 55 6.5 55H58.5C60.2239 55 61.8772 54.2757 63.0962 52.9864C64.3152 51.697 65 49.9484 65 48.125V30.9375H45.0775C44.3524 33.8844 42.7251 36.4944 40.4497 38.36C38.1744 40.2256 35.379 41.2419 32.5 41.25C29.621 41.2419 26.8256 40.2256 24.5503 38.36C22.2749 36.4944 20.6476 33.8844 19.9225 30.9375H0Z" fill="black"/>
</svg>
