<svg width="121" height="99" viewBox="0 0 121 99" fill="none" xmlns="http://www.w3.org/2000/svg">
<path fill-rule="evenodd" clip-rule="evenodd" d="M34.2522 87.5226V92.6595V97.7964H32.0974V96.5491C31.4139 97.4741 30.3769 98.0547 28.9672 98.0547C26.1882 98.0547 24.0097 95.7987 24.0097 92.6595C24.0097 89.5228 26.1882 87.2643 28.9672 87.2643C30.3769 87.2643 31.4139 87.8449 32.0974 88.77V87.5226H34.2522ZM29.2353 89.3702C27.37 89.3702 26.2285 90.8537 26.2285 92.6595C26.2285 94.4652 27.37 95.9487 29.2353 95.9487C31.0175 95.9487 32.2207 94.5292 32.2207 92.6595C32.2207 90.7897 31.0175 89.3702 29.2353 89.3702ZM107.07 92.6595C107.07 90.8537 108.212 89.3702 110.077 89.3702C111.862 89.3702 113.062 90.7897 113.062 92.6595C113.062 94.5292 111.862 95.9487 110.077 95.9487C108.212 95.9487 107.07 94.4652 107.07 92.6595ZM115.096 83.3969V92.6595V97.7964H112.939V96.5491C112.256 97.4741 111.218 98.0547 109.809 98.0547C107.03 98.0547 104.851 95.7987 104.851 92.6595C104.851 89.5228 107.03 87.2643 109.809 87.2643C111.218 87.2643 112.256 87.8449 112.939 88.77V83.3969H115.096ZM61.0001 89.2644C62.3884 89.2644 63.2807 90.1673 63.5085 91.7566H58.3659C58.5961 90.2731 59.4647 89.2644 61.0001 89.2644ZM56.1066 92.6595C56.1066 89.4563 58.138 87.2643 61.0428 87.2643C63.8194 87.2643 65.7274 89.4563 65.7487 92.6595C65.7487 92.9596 65.7274 93.2401 65.706 93.5181L58.3469 93.5181C58.6577 95.3682 59.9226 96.0349 61.3109 96.0349C62.3053 96.0349 63.3637 95.6462 64.1943 94.9598L65.2504 96.6155C64.0472 97.6684 62.6803 98.0547 61.1875 98.0547C58.2211 98.0547 56.1066 95.9266 56.1066 92.6595ZM87.0621 92.6595C87.0621 90.8537 88.2036 89.3702 90.0689 89.3702C91.8512 89.3702 93.0543 90.7897 93.0543 92.6595C93.0543 94.5292 91.8512 95.9487 90.0689 95.9487C88.2036 95.9487 87.0621 94.4652 87.0621 92.6595ZM95.0858 87.5226V92.6595V97.7964H92.931V96.5491C92.2451 97.4741 91.2104 98.0547 89.8008 98.0547C87.0218 98.0547 84.8433 95.7987 84.8433 92.6595C84.8433 89.5228 87.0218 87.2643 89.8008 87.2643C91.2104 87.2643 92.2451 87.8449 92.931 88.77V87.5226H95.0858ZM74.8924 92.6595C74.8924 95.7766 76.9855 98.0547 80.1798 98.0547C81.6725 98.0547 82.6669 97.7103 83.7443 96.8295L82.7096 95.0237C81.9003 95.6265 81.0508 95.9488 80.1157 95.9488C78.3952 95.9266 77.1303 94.6375 77.1303 92.6595C77.1303 90.6815 78.3952 89.3924 80.1157 89.3702C81.0508 89.3702 81.9003 89.6925 82.7096 90.2953L83.7443 88.4895C82.6669 87.6087 81.6725 87.2643 80.1798 87.2643C76.9855 87.2643 74.8924 89.5425 74.8924 92.6595ZM100.062 88.77C100.622 87.8671 101.431 87.2643 102.675 87.2643C103.111 87.2643 103.733 87.3504 104.21 87.5448L103.546 89.6507C103.09 89.4564 102.634 89.3924 102.198 89.3924C100.788 89.3924 100.083 90.3371 100.083 92.0371V97.7964H97.9261V87.5227H100.062V88.77ZM44.9099 88.3394C43.8728 87.6309 42.4442 87.2643 40.8684 87.2643C38.3576 87.2643 36.7415 88.5116 36.7415 90.5536C36.7415 92.229 37.9447 93.2622 40.1612 93.5845L41.1793 93.7346C42.3611 93.9068 42.9188 94.2291 42.9188 94.8097C42.9188 95.6043 42.1309 96.057 40.6596 96.057C39.1669 96.057 38.0894 95.5625 37.3633 94.9819L36.3476 96.7213C37.5294 97.6242 39.0221 98.0547 40.6382 98.0547C43.5002 98.0547 45.1591 96.6573 45.1591 94.7015C45.1591 92.8957 43.8538 91.951 41.6966 91.6287L40.6809 91.4762C39.7483 91.3482 39.0007 91.1563 39.0007 90.4675C39.0007 89.7147 39.7056 89.2645 40.8874 89.2645C42.1523 89.2645 43.3768 89.7589 43.9772 90.1452L44.9099 88.3394ZM70.1035 88.77C70.6612 87.8671 71.4705 87.2643 72.714 87.2643C73.1507 87.2643 73.7724 87.3504 74.2494 87.5448L73.5849 89.6507C73.1293 89.4564 72.6736 89.3924 72.237 89.3924C70.8273 89.3924 70.1225 90.3371 70.1225 92.0371V97.7964H67.9677V87.5227L70.1035 87.5227V88.77ZM54.324 87.5226H50.7999V84.4056H48.6213V87.5226H46.6112V89.5646H48.6213V94.2512C48.6213 96.6352 49.5136 98.0547 52.0624 98.0547C52.9974 98.0547 54.0748 97.7545 54.7583 97.26L54.1365 95.346C53.4934 95.7323 52.7886 95.9266 52.2285 95.9266C51.1511 95.9266 50.7999 95.2378 50.7999 94.207V89.5646H54.324V87.5226ZM22.1039 91.3482V97.7964H19.9253V92.0789C19.9253 90.3371 19.2205 89.3703 17.7491 89.3703C16.3181 89.3703 15.3238 90.3174 15.3238 92.1011V97.7964H13.1452V92.0789C13.1452 90.3371 12.4214 89.3703 10.9904 89.3703C9.51667 89.3703 8.56266 90.3174 8.56266 92.1011V97.7964H6.38647L6.38647 87.5227H8.54367L8.54367 88.7897C9.35292 87.5866 10.3876 87.2643 11.446 87.2643C12.9601 87.2643 14.0375 87.9532 14.721 89.0923C15.6347 87.6506 16.9399 87.2422 18.2048 87.2643C20.6112 87.2865 22.1039 88.92 22.1039 91.3482Z" fill="#B9BEBD"/>
<path d="M76.8549 70.0655H44.1956V9.22021H76.8549V70.0655Z" fill="#CACACA"/>
<path d="M46.2675 39.6441C46.2675 27.3013 51.842 16.3068 60.523 9.22145C54.1748 4.0403 46.163 0.947853 37.4559 0.947853C16.8427 0.947853 0.133301 18.2725 0.133301 39.6441C0.133301 61.0157 16.8427 78.3403 37.4559 78.3403C46.163 78.3403 54.1748 75.2479 60.523 70.0667C51.842 62.9814 46.2675 51.9868 46.2675 39.6441Z" fill="#B9BEBD"/>
<path d="M120.915 39.6441C120.915 61.0157 104.206 78.3403 83.5924 78.3403C74.8853 78.3403 66.8735 75.2479 60.5229 70.0667C69.2063 62.9814 74.7809 51.9868 74.7809 39.6441C74.7809 27.3013 69.2063 16.3068 60.5229 9.22145C66.8735 4.0403 74.8853 0.947853 83.5924 0.947853C104.206 0.947853 120.915 18.2725 120.915 39.6441Z" fill="#DBDBDB"/>
</svg>
