<svg width="172" height="68" viewBox="0 0 172 68" fill="none" xmlns="http://www.w3.org/2000/svg">
<path fill-rule="evenodd" clip-rule="evenodd" d="M92.7784 9.64819L80.8299 12.0416V2.99993L92.7784 0.650879V9.64819ZM117.626 14.6564C112.961 14.6564 109.962 16.6952 108.296 18.1135L107.677 15.3656H97.2047V67.0448L109.105 64.6957L109.153 52.1527C110.867 53.305 113.39 54.9449 117.579 54.9449C126.1 54.9449 133.859 48.5626 133.859 34.5126C133.812 21.6593 125.957 14.6564 117.626 14.6564ZM114.77 45.194C111.962 45.194 110.296 44.2633 109.153 43.1109L109.105 26.6676C110.343 25.3822 112.057 24.4958 114.77 24.4958C119.102 24.4958 122.101 29.0166 122.101 34.8228C122.101 40.7619 119.15 45.194 114.77 45.194ZM171.371 34.9558C171.371 23.6094 165.468 14.6564 154.186 14.6564C142.857 14.6564 136.002 23.6094 136.002 34.8671C136.002 48.208 144.094 54.9449 155.709 54.9449C161.374 54.9449 165.658 53.7482 168.895 52.064V43.1996C165.658 44.7065 161.945 45.6373 157.233 45.6373C152.615 45.6373 148.521 44.1304 147.998 38.9004H171.276C171.276 38.6561 171.293 38.1012 171.312 37.4618C171.339 36.5931 171.371 35.5685 171.371 34.9558ZM147.855 30.745C147.855 25.7367 151.139 23.6536 154.138 23.6536C157.042 23.6536 160.136 25.7367 160.136 30.745H147.855ZM80.8291 15.41H92.7776V54.1915H80.8291V15.41ZM67.2634 15.4099L68.025 18.6897C70.8336 13.9029 76.4032 14.878 77.9265 15.4099V25.6039C76.4508 25.1163 71.6905 24.4958 68.8819 27.9086V54.1914H56.9811V15.4099H67.2634ZM44.2228 5.79216L32.6076 8.09689L32.56 43.5986C32.56 50.1582 37.844 54.9893 44.8893 54.9893C48.7927 54.9893 51.6489 54.3245 53.2198 53.5267V44.5294C51.6965 45.1055 44.1752 47.1443 44.1752 40.5847V24.8505H53.2198V15.41H44.1752L44.2228 5.79216ZM16.0899 24.2744C13.5669 24.2744 12.0436 24.9393 12.0436 26.6678C12.0436 28.5551 14.6652 29.3853 17.9177 30.4153C23.2199 32.0944 30.1985 34.3044 30.228 42.4907C30.228 50.4243 23.4208 54.9894 13.5193 54.9894C9.42544 54.9894 4.95074 54.236 0.523636 52.4631V41.9145C4.52231 43.9533 9.56825 45.4603 13.5193 45.4603C16.1851 45.4603 18.0892 44.7954 18.0892 42.7566C18.0892 40.6661 15.2473 39.7105 11.8164 38.5569C6.59129 36.8001 0 34.5838 0 27.1997C0 19.3547 6.42644 14.6566 16.0899 14.6566C20.041 14.6566 23.9444 15.2328 27.8955 16.6954V27.111C24.2776 25.2938 19.7077 24.2744 16.0899 24.2744Z" fill="#B9BEBD"/>
</svg>
