<svg width="137" height="48" viewBox="0 0 137 48" fill="none" xmlns="http://www.w3.org/2000/svg">
<path fill-rule="evenodd" clip-rule="evenodd" d="M34.3448 46.7277H22.5956L13.6922 10.4341C13.2697 8.76458 12.378 7.28864 11.0702 6.59301C7.80614 4.84487 4.21079 3.45361 0.29068 2.75194L0.287103 1.35463H19.2142C21.8264 1.35463 23.7909 3.45361 24.1237 5.89133L28.7621 32.0711L40.4269 1.35463H51.8496L34.3448 46.7277ZM58.4963 46.7277H47.4002L56.421 1.35463H67.5172L58.4963 46.7277ZM81.9051 13.9243C82.2253 11.4805 84.1809 10.0832 86.4666 10.0832C90.0575 9.73235 93.9719 10.434 97.2416 12.1761L99.1757 2.40709C95.9069 1.00978 92.3133 0.308105 89.0538 0.308105C78.2841 0.308105 70.4636 6.59295 70.4859 15.3155C70.5029 21.9512 76.0628 25.4354 79.9865 27.5344C84.2309 29.6273 85.8671 31.0246 85.546 33.1175C85.554 36.2569 82.2923 37.6542 79.0328 37.6542C75.1145 37.6542 71.1935 36.6078 67.6029 34.8596L65.6688 44.6347C69.5916 46.3768 73.8325 47.0785 77.7508 47.0785C89.8274 47.4233 97.3157 41.1445 97.2916 31.7202C97.2612 19.8522 81.9184 19.1566 81.9051 13.9243ZM136.164 46.7277L127.237 1.35463H117.774C115.814 1.35463 113.859 2.75194 113.211 4.84487L97.0035 46.7277H108.426L110.689 40.0981H124.724L126.047 46.7277H136.164ZM119.438 13.5736L122.741 30.674H113.604L119.438 13.5736Z" fill="#B9BEBD"/>
</svg>
