<svg width="49" height="33" viewBox="0 0 49 33" fill="none" xmlns="http://www.w3.org/2000/svg">
<path d="M0.00190407 7.90637H48.9991V6.0815C48.9991 2.04084 46.6571 0 41.9933 0H7.00762C2.34476 0 0.00095215 2.04084 0.00095215 6.08234L0.00190407 7.90637ZM0.00190407 26.9378C0.00190407 30.9793 2.34381 33 7.00762 33H41.9933C46.6562 33 49 30.9793 49 26.9378V12.3606H0L0.00190407 26.9378ZM7.4541 22.1504V18.5208C7.4541 17.4225 8.32422 16.6373 9.64083 16.6373H15.1072C16.4238 16.6373 17.2939 17.4225 17.2939 18.5208V22.1504C17.2939 23.2688 16.4238 24.0339 15.1072 24.0339H9.63988C8.32327 24.0339 7.4541 23.2688 7.4541 22.1504Z" fill="url(#paint0_linear_296_245)"/>
<defs>
<linearGradient id="paint0_linear_296_245" x1="24.5" y1="0" x2="24.5" y2="33" gradientUnits="userSpaceOnUse">
<stop stop-color="#188D77"/>
<stop offset="1" stop-color="#28AC95"/>
</linearGradient>
</defs>
</svg>
