<svg width="52" height="51" viewBox="0 0 52 51" fill="none" xmlns="http://www.w3.org/2000/svg">
<path d="M15.2209 22.1425H5.47087C4.89623 22.1425 4.34513 21.9186 3.9388 21.5201C3.53247 21.1216 3.3042 20.5811 3.3042 20.0175V10.455C3.3042 9.89143 3.53247 9.35093 3.9388 8.95241C4.34513 8.5539 4.89623 8.33002 5.47087 8.33002C6.0455 8.33002 6.5966 8.5539 7.00293 8.95241C7.40926 9.35093 7.63753 9.89143 7.63753 10.455V17.8925H15.2209C15.7955 17.8925 16.3466 18.1164 16.7529 18.5149C17.1593 18.9134 17.3875 19.4539 17.3875 20.0175C17.3875 20.5811 17.1593 21.1216 16.7529 21.5201C16.3466 21.9186 15.7955 22.1425 15.2209 22.1425Z" fill="url(#paint0_linear_296_250)"/>
<path d="M42.5192 31.7051C41.9446 31.7051 41.3935 31.4812 40.9872 31.0827C40.5808 30.6841 40.3526 30.1436 40.3526 29.5801C40.3542 25.8391 39.0969 22.2021 36.7756 19.2337C34.4544 16.2652 31.199 14.1311 27.5147 13.1626C23.8304 12.1941 19.9232 12.4453 16.3994 13.8772C12.8756 15.3092 9.93214 17.8419 8.02591 21.0822C7.73802 21.57 7.26434 21.9256 6.7091 22.0709C6.15385 22.2161 5.56251 22.1391 5.06516 21.8567C4.56781 21.5744 4.2052 21.1098 4.05709 20.5652C3.90898 20.0207 3.98752 19.4407 4.27541 18.9529C6.65929 14.9032 10.3392 11.7382 14.7443 9.94906C19.1494 8.1599 24.0334 7.84655 28.6387 9.05763C33.2439 10.2687 37.3129 12.9365 40.2144 16.6471C43.1158 20.3578 44.6876 24.9038 44.6859 29.5801C44.6859 30.1436 44.4576 30.6841 44.0513 31.0827C43.645 31.4812 43.0939 31.7051 42.5192 31.7051ZM40.0817 50.8301C39.5071 50.8301 38.956 50.6062 38.5497 50.2077C38.1433 49.8091 37.9151 49.2686 37.9151 48.7051V41.2676H30.3317C29.7571 41.2676 29.206 41.0437 28.7997 40.6452C28.3933 40.2466 28.1651 39.7061 28.1651 39.1426C28.1651 38.579 28.3933 38.0385 28.7997 37.6399C29.206 37.2414 29.7571 37.0176 30.3317 37.0176H40.0817C40.6564 37.0176 41.2075 37.2414 41.6138 37.6399C42.0201 38.0385 42.2484 38.579 42.2484 39.1426V48.7051C42.2484 49.2686 42.0201 49.8091 41.6138 50.2077C41.2075 50.6062 40.6564 50.8301 40.0817 50.8301Z" fill="url(#paint1_linear_296_250)"/>
<path d="M23.0192 50.83C17.275 50.8232 11.768 48.5822 7.70616 44.5985C3.64436 40.6148 1.35942 35.2137 1.35254 29.58C1.35254 29.0164 1.58081 28.4759 1.98714 28.0774C2.39347 27.6788 2.94457 27.455 3.51921 27.455C4.09384 27.455 4.64494 27.6788 5.05127 28.0774C5.4576 28.4759 5.68587 29.0164 5.68587 29.58C5.68423 33.3209 6.94158 36.9579 9.26284 39.9264C11.5841 42.8949 14.8394 45.0289 18.5237 45.9974C22.208 46.966 26.1152 46.7147 29.6391 45.2828C33.1629 43.8508 36.1063 41.3181 38.0125 38.0778C38.1551 37.8363 38.3448 37.6247 38.5707 37.455C38.7966 37.2854 39.0544 37.1611 39.3294 37.0892C39.6043 37.0172 39.891 36.9991 40.173 37.0359C40.4551 37.0726 40.727 37.1635 40.9733 37.3033C41.2196 37.4431 41.4353 37.6291 41.6083 37.8507C41.7813 38.0723 41.908 38.3251 41.9814 38.5948C42.0547 38.8644 42.0732 39.1456 42.0357 39.4222C41.9982 39.6989 41.9056 39.9656 41.763 40.2071C39.8575 43.4296 37.1242 46.1061 33.8355 47.97C30.5468 49.8338 26.8175 50.8199 23.0192 50.83Z" fill="url(#paint2_linear_296_250)"/>
<defs>
<linearGradient id="paint0_linear_296_250" x1="10.3459" y1="8.33002" x2="10.3459" y2="22.1425" gradientUnits="userSpaceOnUse">
<stop stop-color="#26A890"/>
<stop offset="1" stop-color="#188D78"/>
</linearGradient>
<linearGradient id="paint1_linear_296_250" x1="24.3349" y1="8.33295" x2="24.3349" y2="50.8301" gradientUnits="userSpaceOnUse">
<stop stop-color="#26A890"/>
<stop offset="1" stop-color="#188D78"/>
</linearGradient>
<linearGradient id="paint2_linear_296_250" x1="21.7035" y1="27.455" x2="21.7035" y2="50.83" gradientUnits="userSpaceOnUse">
<stop stop-color="#26A890"/>
<stop offset="1" stop-color="#188D78"/>
</linearGradient>
</defs>
</svg>
